# xmcd
#
# Track frame offsets: 
#        150
#        12364
#        25170
#        36637
#        48703
#        61015
#        73398
#        84807
#        97608
#        109111
#        118527
#        129988
#        138957
#        148046
#        160100
#        169710
#        182328
#        191625
#        200478
#        209480
#        219027
#        228825
#        237045
#        246243
#        255964
#        266282
#        275568
#        284996
#        296424
#        305894
#        316883
#        326576
#        334645
#        345141
#
# Disc length: 4747 seconds
#
# Revision: 0
# Processed by: cddbd v1.5.1PL0 Copyright (c) Steve Scherf et al.
# Submitted via: ExactAudioCopy v0.95a5
#
DISCID=e8128922
DTITLE=Various Artist - Premo Beats (Mixed by E-NYCE) - CD4
DYEAR=1900
DGENRE=Hip-Hop Instrumentals
TTITLE0=Rass Kass/Golden Child
TTITLE1=Gangstarr/Royalty
TTITLE2=M.O.P. and Gangstarr/1-2 and 1-2
TTITLE3=M.O.P./Rugged Neva Smooth
TTITLE4=Gangstarr/Militia
TTITLE5=Lox/Recognize
TTITLE6=Notorious BIG/10 Crack Commandments
TTITLE7=Notorious BIG/Unbelievable
TTITLE8=Jay Z/A Million and One Questions
TTITLE9=Jay Z/Rhyme No More (Million Questions Beat 2)
TTITLE10=Jay Z/Sauce Money (Jaz - Bring It On)
TTITLE11=Jay Z/Friend Or Foe
TTITLE12=Jay Z/So Ghetto
TTITLE13=Tony Touch/The PieceMaker
TTITLE14=Capone and Noreaga/Invincible
TTITLE15=O.C./My World
TTITLE16=Snoop/One and Only
TTITLE17=Gangstarr/Natural
TTITLE18=M.O.P./Handle Ur Bizness (Remix)
TTITLE19=Royce Da 5'9/Friend
TTITLE20=DJ Premier/Unreleased Beat
TTITLE21=Fat Joe/Gangsta Shit
TTITLE22=Fat Joe/Success
TTITLE23=Rakim/Been A Long
TTITLE24=Afu-Ra and Gza/Big Acts Little Acts
TTITLE25=Group Home/The Legacy
TTITLE26=M.O.P./Stick To Ya Gunz
TTITLE27=Gangstarr/Take It Personal
TTITLE28=Group Home/Up Against Da Wall (Remix)
TTITLE29=Gangstarr/Sabotage
TTITLE30=Group Home/Forgive My Sins (Intro)
TTITLE31=Paula Perry/Extra Extra
TTITLE32=Brand Nubian/The Return
TTITLE33=Gangstarr/Ex Girl To The Next Girl
EXTD=
EXTT0=
EXTT1=
EXTT2=
EXTT3=
EXTT4=
EXTT5=
EXTT6=
EXTT7=
EXTT8=
EXTT9=
EXTT10=
EXTT11=
EXTT12=
EXTT13=
EXTT14=
EXTT15=
EXTT16=
EXTT17=
EXTT18=
EXTT19=
EXTT20=
EXTT21=
EXTT22=
EXTT23=
EXTT24=
EXTT25=
EXTT26=
EXTT27=
EXTT28=
EXTT29=
EXTT30=
EXTT31=
EXTT32=
EXTT33=
PLAYORDER=
